<svg width="12" height="12" viewBox="0 0 12 12" fill="none" xmlns="http://www.w3.org/2000/svg">
<g clip-path="url(#clip0_1_228)">
<path d="M4.56309 2.0236L5.58115 3.06916C5.65082 3.14047 5.65063 3.25434 5.58079 3.32547L3.85561 5.08491L11.3166 5.08491C11.4177 5.08491 11.4999 5.16705 11.4999 5.26824L11.4999 6.73491C11.4999 6.8361 11.4177 6.91824 11.3166 6.91824L3.85561 6.91824L5.58078 8.67768C5.65046 8.74881 5.65063 8.86249 5.58115 8.93379L4.56309 9.97935C4.52863 10.0149 4.48132 10.0349 4.43182 10.0349C4.38232 10.0349 4.33501 10.0147 4.30055 9.97935L0.551936 6.12935C0.517283 6.0938 0.49988 6.04758 0.49988 6.00156C0.49988 5.95537 0.517304 5.90935 0.551936 5.8736L4.30055 2.0236C4.33501 1.98822 4.38232 1.96824 4.43182 1.96824C4.48132 1.96824 4.52863 1.98822 4.56309 2.0236Z" fill="white"/>
</g>
<defs>
<clipPath id="clip0_1_228">
<rect width="11" height="11" fill="white" transform="matrix(4.37114e-08 -1 -1 -4.37114e-08 11.4999 11.5015)"/>
</clipPath>
</defs>
</svg>
