<?xml version="1.0" encoding="utf-8"?><svg viewBox="0 0 30 30" xmlns="http://www.w3.org/2000/svg" xmlns:xlink="http://www.w3.org/1999/xlink"><style>:root>svg{display:none}:root>svg:target{display:block}</style><svg viewBox="0 0 30 30" id="footer-soc-1" xmlns="http://www.w3.org/2000/svg"><path d="M13.06 22.734h3.017c.259 0 .469-.21.469-.468v-6.792h1.567c.24 0 .442-.181.466-.42l.265-2.565a.469.469 0 00-.467-.517h-1.831v-1.039c0-.214.068-.23.171-.23h1.622c.26 0 .469-.21.469-.47v-2.49a.469.469 0 00-.467-.468l-2.237-.01c-1.567 0-2.404.69-2.83 1.269-.594.808-.683 1.754-.683 2.246v1.192h-.966a.469.469 0 00-.469.469v2.564c0 .26.21.47.469.47h.966v6.79c0 .26.21.47.469.47zm-.966-8.197v-1.628h.966c.259 0 .469-.21.469-.468v-1.66c0-.304.048-1.077.5-1.692.433-.588 1.131-.886 2.073-.886l1.768.007v1.555h-1.153c-.552 0-1.109.361-1.109 1.168v1.508c0 .259.21.468.469.468h1.78l-.167 1.628h-1.613a.469.469 0 00-.469.468v6.792h-2.08v-6.792a.469.469 0 00-.468-.468h-.966z"/><path d="M25.607 4.394A14.902 14.902 0 0015 0C10.994 0 7.227 1.56 4.394 4.394A14.902 14.902 0 000 15c0 4.007 1.56 7.774 4.394 10.607A14.902 14.902 0 0015 30c4.007 0 7.774-1.56 10.607-4.393A14.902 14.902 0 0030 15c0-4.007-1.56-7.773-4.393-10.606zm-.663 20.55A13.97 13.97 0 0115 29.063a13.971 13.971 0 01-9.944-4.119A13.97 13.97 0 01.937 15a13.97 13.97 0 014.12-9.943A13.97 13.97 0 0115 .937a13.97 13.97 0 019.944 4.12A13.97 13.97 0 0129.063 15a13.97 13.97 0 01-4.12 9.944z"/></svg><svg viewBox="0 0 30 30" id="footer-soc-2" xmlns="http://www.w3.org/2000/svg"><path d="M25.607 4.394A14.902 14.902 0 0015 0C10.993 0 7.227 1.56 4.394 4.394A14.902 14.902 0 000 15c0 4.007 1.56 7.774 4.394 10.607A14.902 14.902 0 0015 30c4.007 0 7.774-1.56 10.607-4.393A14.902 14.902 0 0030 15c0-4.007-1.56-7.773-4.393-10.606zm-.663 20.55A13.97 13.97 0 0115 29.062a13.97 13.97 0 01-9.943-4.118A13.97 13.97 0 01.937 15a13.97 13.97 0 014.12-9.943A13.97 13.97 0 0115 .937a13.97 13.97 0 019.944 4.12A13.97 13.97 0 0129.062 15a13.97 13.97 0 01-4.118 9.944z"/><path d="M18.94 7.48h-7.85c-1.99 0-3.61 1.62-3.61 3.61v7.85c0 1.99 1.62 3.61 3.61 3.61h7.85c1.99 0 3.61-1.62 3.61-3.61v-7.85c0-1.99-1.62-3.61-3.61-3.61zm2.659 11.46a2.662 2.662 0 01-2.66 2.659h-7.85a2.662 2.662 0 01-2.659-2.66v-7.85a2.662 2.662 0 012.66-2.659h7.85a2.662 2.662 0 012.659 2.66v7.85z"/><path d="M19.226 10.234a.58.58 0 10.001 1.159.58.58 0 00-.001-1.16zM15.014 11.32a3.698 3.698 0 00-3.693 3.694 3.698 3.698 0 003.693 3.694 3.698 3.698 0 003.694-3.694 3.698 3.698 0 00-3.694-3.693zm0 6.438a2.746 2.746 0 01-2.743-2.744 2.746 2.746 0 012.743-2.742 2.746 2.746 0 012.743 2.742 2.746 2.746 0 01-2.743 2.744z"/></svg><svg viewBox="0 0 30 30" id="footer-soc-3" xmlns="http://www.w3.org/2000/svg"><path d="M25.607 4.394A14.902 14.902 0 0015 0C10.994 0 7.227 1.56 4.394 4.394A14.902 14.902 0 000 15c0 4.007 1.56 7.774 4.394 10.607A14.902 14.902 0 0015 30c4.007 0 7.774-1.56 10.607-4.393A14.902 14.902 0 0030 15c0-4.007-1.56-7.773-4.393-10.606zm-.663 20.55A13.97 13.97 0 0115 29.063a13.971 13.971 0 01-9.944-4.119A13.97 13.97 0 01.937 15a13.97 13.97 0 014.12-9.944A13.97 13.97 0 0115 .937a13.97 13.97 0 019.944 4.12A13.97 13.97 0 0129.063 15a13.97 13.97 0 01-4.12 9.944z"/><path d="M23.359 11.412a.469.469 0 00-.58-.689l-.036.016c.11-.198.202-.407.272-.626a.469.469 0 00-.686-.546 5.47 5.47 0 01-1.507.615 3.453 3.453 0 00-5.77 2.714 8.021 8.021 0 01-5.24-2.893.468.468 0 00-.768.06 3.454 3.454 0 00-.054 3.376.466.466 0 00-.437.467v.038c0 1.032.463 1.98 1.208 2.62a.469.469 0 00-.14.498c.32 1 1.069 1.777 2.007 2.151a5.492 5.492 0 01-2.48.582c-.22 0-.441-.013-.656-.038a.469.469 0 00-.308.86 8.917 8.917 0 004.824 1.414c3.366 0 5.474-1.59 6.649-2.922 1.463-1.66 2.302-3.857 2.302-6.03l-.001-.156a6.472 6.472 0 001.4-1.511zm-2.152.903a.469.469 0 00-.194.403c.006.115.008.234.008.362 0 1.947-.753 3.918-2.067 5.409-1.048 1.188-2.93 2.605-5.946 2.605a7.987 7.987 0 01-2.69-.465 6.39 6.39 0 002.822-1.271.469.469 0 00-.28-.838 2.513 2.513 0 01-2.024-1.086c.236-.014.47-.053.698-.114a.469.469 0 00-.03-.912 2.522 2.522 0 01-1.916-1.773c.25.066.509.104.769.113a.468.468 0 00.275-.858 2.51 2.51 0 01-1.037-2.722 8.953 8.953 0 005.976 2.713.468.468 0 00.48-.574 2.515 2.515 0 014.283-2.291c.11.117.273.169.43.138a6.35 6.35 0 00.527-.126c-.087.069-.178.133-.275.19a.469.469 0 00.296.868c.076-.009.152-.02.228-.031-.107.09-.218.177-.333.26z"/></svg><svg viewBox="0 0 30 30" id="footer-soc-4" xmlns="http://www.w3.org/2000/svg"><path d="M25.607 4.394A14.902 14.902 0 0015 0C10.994 0 7.227 1.56 4.394 4.394A14.902 14.902 0 000 15c0 4.007 1.56 7.774 4.394 10.607A14.902 14.902 0 0015 30c4.007 0 7.774-1.56 10.607-4.393A14.902 14.902 0 0030 15c0-4.007-1.56-7.773-4.393-10.606zm-.663 20.55A13.97 13.97 0 0115 29.063a13.971 13.971 0 01-9.944-4.119A13.97 13.97 0 01.937 15a13.97 13.97 0 014.12-9.944A13.97 13.97 0 0115 .937a13.97 13.97 0 019.944 4.12A13.97 13.97 0 0129.063 15a13.97 13.97 0 01-4.12 9.944z"/><path d="M23.075 11.672c-.017-.13-.185-1.296-.731-1.889-.652-.726-1.394-.8-1.751-.837l-.085-.009a.426.426 0 00-.021-.002c-2.154-.167-5.405-.169-5.437-.169h-.008c-.032 0-3.283.002-5.436.169a3.808 3.808 0 01-.106.011c-.357.036-1.099.111-1.751.837-.546.593-.714 1.758-.732 1.89v.007a26.722 26.722 0 00-.158 2.719v1.249c0 1.345.15 2.663.157 2.719l.001.007c.018.132.186 1.296.732 1.889.604.67 1.368.769 1.78.822.071.009.134.017.177.025.014.003.029.006.044.007 1.242.127 5.127.166 5.297.168.033 0 3.286-.008 5.44-.172a.365.365 0 00.023-.003l.088-.01c.356-.037 1.096-.114 1.746-.837.545-.592.713-1.757.73-1.888l.002-.008c.006-.055.157-1.374.157-2.719V14.4c0-1.344-.15-2.663-.157-2.719l-.001-.008zm-.78 3.976c0 1.254-.14 2.528-.15 2.608-.035.26-.199 1.056-.492 1.373l-.005.005c-.409.457-.853.503-1.147.534l-.098.01c-2.118.162-5.326.17-5.352.17-.04 0-3.963-.04-5.186-.161-.068-.013-.14-.022-.217-.032-.351-.045-.832-.107-1.204-.521a.305.305 0 01-.005-.006c-.26-.281-.44-.99-.492-1.373-.01-.082-.15-1.354-.15-2.607v-1.25c0-1.253.141-2.527.15-2.606.035-.26.199-1.058.492-1.375l.005-.005c.41-.458.855-.503 1.15-.533a6.26 6.26 0 00.094-.01c2.117-.163 5.322-.165 5.354-.165h.007c.033 0 3.238.002 5.355.165l.095.01c.294.03.739.075 1.149.533l.005.005c.26.282.44.99.492 1.375.01.082.15 1.354.15 2.607v1.25z"/><path d="M18.185 14.624l-4.826-2.896a.47.47 0 00-.71.402v5.791a.469.469 0 00.71.402l4.826-2.895a.469.469 0 000-.804zm-4.598 2.47v-4.136l3.446 2.068-3.446 2.067z"/></svg><svg fill="none" viewBox="0 0 12 12" id="reviews-arrow-left" xmlns="http://www.w3.org/2000/svg"><g clip-path="url(#eclip0_1_228)"><path d="M4.563 2.024l1.018 1.045c.07.071.07.185 0 .256l-1.725 1.76h7.46c.102 0 .184.082.184.183v1.467a.183.183 0 01-.183.183H3.856l1.725 1.76c.07.07.07.184 0 .256L4.563 9.979a.183.183 0 01-.262 0L.55 6.13a.183.183 0 010-.255l3.75-3.85a.183.183 0 01.262 0z" fill="#fff"/></g><defs><clipPath id="eclip0_1_228"><path fill="#fff" transform="scale(1 -1) rotate(90 11.5 0)" d="M0 0h11v11H0z"/></clipPath></defs></svg><svg fill="none" viewBox="0 0 12 12" id="reviews-arrow-right" xmlns="http://www.w3.org/2000/svg"><g clip-path="url(#fclip0_1_235)"><path d="M7.437 2.024L6.419 3.069a.183.183 0 000 .256l1.725 1.76H.684a.183.183 0 00-.184.183v1.467c0 .101.082.183.183.183h7.461L6.42 8.678a.183.183 0 000 .256l1.018 1.045a.183.183 0 00.262 0l3.75-3.85a.183.183 0 000-.255l-3.75-3.85a.183.183 0 00-.262 0z" fill="#fff"/></g><defs><clipPath id="fclip0_1_235"><path fill="#fff" transform="rotate(-90 6 5.5)" d="M0 0h11v11H0z"/></clipPath></defs></svg><svg fill="none" viewBox="0 0 16 16" id="reviews-start" xmlns="http://www.w3.org/2000/svg"><g clip-path="url(#gclip0_1_338)"><path d="M15.622 5.883l-5.182-.48L8.381.621a.415.415 0 00-.763 0L5.56 5.402l-5.183.48a.415.415 0 00-.235.726l3.91 3.435-1.144 5.078a.415.415 0 00.617.448L8 12.912l4.475 2.657a.415.415 0 00.617-.448l-1.144-5.078 3.91-3.435a.415.415 0 00-.236-.725z" fill="#FFDC64"/><path d="M8.381.622a.415.415 0 00-.763 0L5.56 5.402l-5.183.48a.415.415 0 00-.235.726l3.91 3.435-1.144 5.078a.415.415 0 00.617.448l.999-.593c.138-5.69 2.782-9.698 4.875-11.99L8.381.622z" fill="#FFC850"/></g><defs><clipPath id="gclip0_1_338"><path fill="#fff" d="M0 0h16v16H0z"/></clipPath></defs></svg></svg>